PathFileType	4	(X/Y/Z)	s05c0302.trc
DataRate	CameraRate	NumFrames	NumMarkers	Units	OrigDataRate	OrigDataStartFrame	OrigNumFrames
200	200	5	49	mm	200	1000	2000
Frame#	Time	racr			lacr			c7			jug			rlel			rdr			llel			ldr			s2			lic			ric			lasi			rasi			rpsi			lpsi			rgt			lgt			rth1			rth2			rth3			rth4			rlfc			rsh1			rsh2			rsh3			rsh4			rlmal			rmmal			rcal			rtoe			rmt5			lth1			lth2			lth4			lth3			llfc			lmfc			lsh1			lsh2			lsh3			lsh4			llmal			lmmal			lcal			ltoe			lmt5			SBIKE			LBIKE			RBIKE			
		X1	Y1	Z1	X2	Y2	Z2	X3	Y3	Z3	X4	Y4	Z4	X5	Y5	Z5	X6	Y6	Z6	X7	Y7	Z7	X8	Y8	Z8	X9	Y9	Z9	X10	Y10	Z10	X11	Y11	Z11	X12	Y12	Z12	X13	Y13	Z13	X14	Y14	Z14	X15	Y15	Z15	X16	Y16	Z16	X17	Y17	Z17	X18	Y18	Z18	X19	Y19	Z19	X20	Y20	Z20	X21	Y21	Z21	X22	Y22	Z22	X23	Y23	Z23	X24	Y24	Z24	X25	Y25	Z25	X26	Y26	Z26	X27	Y27	Z27	X28	Y28	Z28	X29	Y29	Z29	X30	Y30	Z30	X31	Y31	Z31	X32	Y32	Z32	X33	Y33	Z33	X34	Y34	Z34	X35	Y35	Z35	X36	Y36	Z36	X37	Y37	Z37	X38	Y38	Z38	X39	Y39	Z39	X40	Y40	Z40	X41	Y41	Z41	X42	Y42	Z42	X43	Y43	Z43	X44	Y44	Z44	X45	Y45	Z45	X46	Y46	Z46	X47	Y47	Z47	X48	Y48	Z48	X49	Y49	Z49	
1000	5.0000	793.882094	1280.700388	-130.262108	797.702532	1251.366213	-416.884608	797.104327	1344.168629	-285.988180	726.566154	1194.725307	-264.029166	599.496078	1105.121481	5.366703	704.154525	921.188015	-86.576976	575.775218	1113.874482	-583.549840	702.268358	928.034174	-482.842243	205.596625	1243.757599	-323.445701	375.212743	1195.854336	-432.318150	327.079168	1272.302138	-162.427013	400.334285	1141.952092	-377.350822	351.254785	1197.232663	-171.482472	241.226257	1292.786385	-285.932053	262.655507	1273.833881	-368.568335	259.669126	1152.353202	-120.634246	282.743781	1112.126027	-453.235855	350.755178	1075.218820	-87.470892	429.545392	1035.150996	-75.447821	475.503869	960.792540	-64.613391	453.807735	1059.280945	-88.621929	565.813098	845.485715	-72.284210	464.570908	805.676400	-57.477418	405.309845	741.963765	-74.627661	325.359594	715.239392	-86.622711	426.232316	716.420796	-94.332455	220.612781	634.703588	-104.446400	255.876079	646.685977	-179.807224	161.560918	678.769884	-150.033198	269.155378	404.813307	-166.609536	207.817018	481.179357	-94.789874	305.979146	975.862064	-468.412440	337.691749	897.059682	-458.352934	370.477196	900.604887	-440.425098	323.979247	807.268078	-457.176005	323.242922	668.383802	-422.075158	286.668726	659.313853	-323.506803	259.956582	560.443520	-462.509085	250.423683	474.391755	-453.103523	199.354793	401.967962	-459.566485	276.651950	466.010143	-426.126408	167.309020	290.895224	-454.849706	188.923685	309.446038	-384.365518	96.759448	276.734436	-423.437357	349.901301	128.946877	-387.804191	250.545836	148.862683	-465.804859	-169.463138	900.369960	-274.203945	-53.316023	79.235035	-474.689163	-53.277242	79.315124	-77.096765	
1001	5.0050	793.132711	1280.101149	-127.128008	798.110016	1252.115683	-413.664983	796.924192	1344.346885	-282.534397	725.736879	1195.288526	-261.124671	598.669684	1104.308001	6.457263	704.324729	921.969216	-85.866943	576.873575	1115.369000	-581.674644	702.615351	927.969063	-482.890698	206.337500	1243.546326	-327.647954	378.335376	1195.487264	-433.716964	324.534515	1273.389789	-165.133949	402.082836	1141.913162	-378.034291	349.455043	1197.808933	-174.350430	241.164193	1293.340980	-290.541010	264.626932	1273.722285	-371.882488	257.783966	1153.870292	-124.144844	285.455702	1112.073632	-455.578430	349.888194	1078.900359	-89.403018	429.377715	1040.373005	-76.551633	476.795708	967.058749	-65.032038	453.300760	1064.818144	-89.844408	569.582616	853.865847	-71.049095	469.475235	812.442875	-56.971999	410.976834	747.781573	-73.963422	331.498434	719.949108	-86.498819	432.710688	722.684017	-92.608914	228.266863	637.297464	-104.555145	263.477947	649.767262	-179.540640	168.759165	680.407627	-150.183069	280.525356	408.191441	-167.044090	218.110129	483.366525	-95.007718	306.840447	976.970281	-470.837037	337.001665	897.605249	-461.493778	369.648490	900.322283	-443.207662	321.457945	807.997922	-461.292694	316.862482	668.249183	-425.791992	279.343549	659.579412	-327.022763	254.218148	560.501260	-466.480741	244.577152	474.554696	-456.995272	193.536047	402.082357	-464.045171	270.378383	466.041348	-429.588564	161.450155	290.671724	-458.220577	182.654898	309.004352	-386.656698	90.811598	278.666252	-426.921269	339.543260	124.624528	-387.289058	241.395706	146.011069	-466.525519	-169.305902	900.488254	-273.355373	-53.317882	79.225865	-474.708335	-53.282755	79.329983	-77.101955	
1002	5.0100	792.420064	1279.230894	-124.094737	798.235837	1252.776657	-410.385491	796.621117	1344.652856	-279.058403	724.780996	1195.901748	-258.422187	598.004799	1103.593974	7.356669	704.261050	922.645697	-85.562138	577.773524	1116.784391	-579.751948	702.968688	927.828274	-482.879254	206.916549	1243.740172	-331.952011	381.107450	1195.373814	-435.039745	322.135237	1274.459655	-167.976731	403.587639	1142.053672	-378.638653	346.949477	1199.140640	-176.270926	241.032931	1293.843251	-294.670309	265.833427	1273.818317	-375.673756	255.815837	1155.634247	-127.364631	287.902858	1112.174021	-457.914949	348.740790	1082.614895	-91.669200	428.797966	1045.429912	-77.690267	477.400513	973.262526	-64.765894	452.474578	1070.222387	-90.929658	572.809128	861.884926	-70.014871	473.728425	818.942106	-56.518811	416.407681	753.150036	-73.354039	337.485281	723.963840	-86.264016	438.653643	728.183934	-91.589210	235.813184	639.148074	-104.528426	270.612319	652.027915	-179.166008	175.693039	681.211873	-150.422187	291.897206	411.138774	-167.172510	228.400080	485.053291	-95.072313	308.308185	978.404897	-473.401768	336.923594	898.420928	-464.086573	369.442647	900.494901	-445.492668	319.830875	808.968631	-464.505244	311.549943	668.736289	-429.269154	273.332446	660.436212	-330.157444	249.150805	561.124950	-469.859757	239.159544	475.135825	-460.375845	188.168357	402.854485	-468.195185	264.719806	466.715729	-432.811245	156.037342	291.212156	-461.314961	176.889668	309.301891	-388.781984	85.166244	281.286795	-430.523694	329.094843	120.920216	-386.442810	232.524463	144.038219	-467.065644	-168.811204	900.606009	-273.641495	-53.325696	79.235047	-474.748948	-53.305064	79.316909	-77.141407	
1003	5.0150	791.774593	1278.110910	-121.178312	798.413418	1253.498452	-407.192802	796.267170	1344.691508	-275.600994	723.863429	1196.325514	-255.789303	597.325118	1102.792063	8.335922	704.250547	923.403095	-85.154480	578.568299	1118.163936	-577.796052	703.264873	927.531374	-482.727584	207.281124	1244.410165	-336.319534	383.595066	1195.666189	-436.396940	320.127190	1274.928361	-170.985119	404.835218	1142.681733	-379.282447	344.160188	1200.232050	-178.920399	241.236620	1294.959755	-298.147142	267.032867	1274.440099	-379.227598	254.000539	1157.413456	-130.564973	290.033702	1112.484950	-460.303608	347.415493	1085.733528	-94.973124	427.696364	1050.289025	-78.901517	477.339808	978.941092	-65.288341	450.803128	1075.937171	-91.777490	575.592475	869.632442	-68.748951	477.628731	824.819007	-56.161105	421.602032	758.038926	-72.850375	343.254269	727.381281	-85.999444	444.382761	733.197728	-90.696729	243.080843	640.256458	-104.479958	278.653131	653.788539	-178.878182	182.511001	681.138905	-149.928882	303.484435	413.591448	-167.305895	239.226448	486.565666	-94.396669	309.881590	979.954678	-475.015203	337.361424	899.656698	-466.045921	369.823881	901.096780	-447.311414	319.146998	810.389534	-467.088256	307.256691	669.542271	-432.431550	268.959484	661.659330	-332.842112	244.594144	562.220341	-472.805587	234.341244	476.318957	-463.351210	183.347103	404.175397	-471.721477	259.726855	467.880216	-435.717084	151.173299	292.361798	-464.132644	171.705306	310.361015	-390.709881	79.864712	284.874800	-434.220800	318.498789	117.551348	-385.534303	223.639799	142.775604	-467.505410	-168.794484	900.600768	-273.754907	-53.348947	79.215039	-474.774658	-53.307237	79.321772	-77.155434	
1004	5.0200	791.163245	1276.738973	-118.430392	798.734608	1254.894426	-406.054203	795.882001	1344.799998	-272.201998	722.876327	1196.813863	-253.284723	596.265106	1101.798671	9.319033	704.145697	924.022215	-84.779309	579.314837	1119.383339	-575.809165	703.483660	927.070294	-482.585452	207.571230	1245.435519	-340.249613	385.817216	1196.359305	-437.656363	318.504318	1275.579179	-174.232876	405.874346	1143.641158	-380.059816	343.974144	1202.152759	-178.866332	240.853999	1297.171354	-303.488169	267.813688	1275.343727	-382.346214	252.034811	1159.438203	-133.790699	291.861316	1113.123761	-462.602924	345.917037	1089.181757	-97.026973	426.058821	1054.736081	-80.386283	476.587840	984.075312	-66.274809	449.348187	1080.819999	-93.065432	577.961055	877.071237	-67.572736	481.139220	830.418803	-55.947603	426.356503	762.333410	-72.300903	348.706066	730.237637	-85.709178	449.824023	737.901534	-89.947184	249.858406	640.860435	-104.422666	285.965385	654.741068	-178.336516	188.247732	680.338204	-149.912475	315.346955	415.587190	-167.376620	249.435928	487.106539	-94.207505	311.590949	981.690229	-475.941056	338.557570	901.393705	-468.088173	370.706430	902.078153	-448.780083	318.947696	812.310016	-469.264109	304.083330	670.686313	-435.094366	266.184124	663.227789	-335.005768	240.847085	563.843161	-475.437090	230.252230	477.977139	-465.884237	179.022954	405.940845	-474.311780	255.580862	469.444106	-438.199877	146.617802	294.181595	-466.619020	167.179152	312.204053	-392.408927	75.059038	289.047862	-437.012682	307.915035	114.708087	-385.080525	214.592068	142.158377	-468.039107	-168.530759	900.720283	-273.590598	-53.335417	79.263736	-474.780359	-53.319245	79.298163	-77.158184	
